<svg height="453pt" viewBox="-64 0 453 453.84" width="453pt" xmlns="http://www.w3.org/2000/svg"><path d="m195.210938 21.839844h-64.390626c7.121094 21.488281 17.9375 41.648437 32.191407 59.457031 14.265625-17.808594 25.082031-37.96875 32.199219-59.457031zm0 0"/><path d="m84.796875 71.710938c-1.175781 4.714843-1.777344 9.578124-1.777344 14.441406 0 13.464844 4.632813 26.671875 13.039063 37.183594l18.960937 23.695312v10.808594h96v-10.808594l18.960938-23.695312c8.40625-10.511719 13.039062-23.726563 13.039062-37.183594 0-4.863282-.597656-9.726563-1.777343-14.433594-4.375-17.511719-1.671876-35.679688 7.617187-51.160156l5.9375-9.894532-37.351563-10.664062c-6.53125 34.71875-21.808593 67.191406-44.496093 94.433594l-9.929688 11.902344-9.925781-11.902344c-22.691406-27.234375-37.96875-59.714844-44.496094-94.433594l-37.34375 10.671875 5.933594 9.894531c9.28125 15.472656 11.984375 33.640625 7.609375 51.144532zm0 0"/><path d="m211.019531 189.839844v-16h-25.472656c.898437 2.511718 1.472656 5.183594 1.472656 8s-.574219 5.488281-1.472656 8zm0 0"/><path d="m147.019531 173.839844h-32v16h48c4.410157 0 8-3.582032 8-8 0-4.414063-3.589843-8-8-8zm0 0"/><path d="m31.820312 397.976562.582032 1.136719c4.640625 9.09375 13.839844 14.734375 24.027344 14.734375 5.335937 0 10.511718-1.566406 14.957031-4.527344l5.6875-3.792968c15.699219-10.480469 37.683593-9.863282 52.800781 1.472656l9.144531 6.839844c13.753907 10.3125 34.25 10.3125 48 0l9.136719-6.847656c15.121094-11.335938 37.105469-11.945313 52.808594-1.472657l5.734375 3.832031c4.417969 2.9375 9.542969 4.488282 14.839843 4.488282 10.199219 0 19.367188-5.664063 23.929688-14.792969 4.3125-8.605469 11.085938-15.902344 19.328125-20.871094l-41.273437-98.023437c-12.136719-28.824219-31.3125-54.441406-55.449219-74.3125h-31.957031c12.382812 26.136718 18.902343 54.542968 18.902343 82.929687h-16c0-28.53125-7.253906-57.082031-20.863281-82.929687h-14.191406l-.328125.648437c-13.488281 26.976563-20.617188 57.183594-20.617188 87.351563h-16c0-30.246094 6.703125-60.496094 19.289063-88h-24.34375c-24.136719 19.871094-43.3125 45.488281-55.449219 74.3125l-41.214844 97.894531c7.863281 4.761719 14.296875 11.632813 18.519531 19.929687zm155.199219-96.136718h16v16h-16zm-72 8h16v16h-16zm0 0"/><path d="m308.683594 404.726562c-.289063.503907-.640625.96875-.894532 1.480469-7.296874 14.578125-21.945312 23.632813-38.25 23.632813-8.472656 0-16.664062-2.488282-23.710937-7.175782l-5.742187-3.832031c-10.210938-6.808593-24.507813-6.425781-34.328126.953125l-9.136718 6.855469c-9.625 7.222656-21.5625 11.199219-33.601563 11.199219-12.039062 0-23.976562-3.976563-33.597656-11.199219l-9.136719-6.847656c-9.832031-7.378907-24.121094-7.761719-34.328125-.953125l-5.695312 3.792968c-7.074219 4.710938-15.320313 7.207032-23.824219 7.207032-16.234375 0-30.898438-8.984375-38.273438-23.449219l-.585937-1.132813c-.078125-.160156-.199219-.296874-.285156-.457031l-16.871094 21.085938c10.175781 3.648437 19.542969 9.578125 27.183594 17.21875 6.917969 6.917969 16.117187 10.734375 25.902343 10.734375 7.257813 0 14.28125-2.128906 20.320313-6.152344l1.519531-1.023438c15.441406-10.296874 36.089844-11.550781 52.65625-3.28125l8.28125 4.144532c16.527344 8.265625 36.933594 8.265625 53.472656 0l8.277344-4.144532c16.5625-8.269531 37.226563-7.007812 52.640625 3.273438l1.550781 1.039062c6.027344 4.015626 13.050782 6.144532 20.304688 6.144532 9.785156 0 18.984375-3.816406 25.90625-10.726563 7.636719-7.640625 17.007812-13.570312 27.183594-17.21875zm0 0"/></svg>